<?xml version="1.0" standalone="no"?>
<!DOCTYPE svg PUBLIC "-//W3C//DTD SVG 20010904//EN"
 "http://www.w3.org/TR/2001/REC-SVG-20010904/DTD/svg10.dtd">
<svg version="1.0" xmlns="http://www.w3.org/2000/svg"
 width="1280.000000pt" height="829.000000pt" viewBox="0 0 1280.000000 829.000000"
 preserveAspectRatio="xMidYMid meet">
<metadata>
Created by potrace 1.16, written by Peter Selinger 2001-2019
</metadata>
<g transform="translate(0.000000,829.000000) scale(0.100000,-0.100000)"
fill="#000000" stroke="none">
<path d="M5402 6100 c3 -20 972 -1010 988 -1010 5 0 10 6 12 14 3 14 -979
1017 -995 1016 -5 0 -7 -9 -5 -20z"/>
<path d="M4602 4710 c3 -21 747 -783 782 -802 21 -11 21 -11 2 11 -20 22 -20
22 0 15 20 -7 -65 82 -505 528 -146 147 -268 268 -273 268 -5 0 -8 -9 -6 -20z"/>
<path d="M7402 4202 c-2 -73 -2 -74 48 -145 55 -81 161 -196 560 -607 152
-157 298 -309 325 -337 55 -59 79 -70 44 -21 -13 17 -16 28 -8 23 12 -8 12 -6
0 8 -7 9 -17 15 -21 12 -4 -3 -7 1 -6 9 1 11 -169 191 -645 681 -80 82 -177
183 -215 224 l-69 73 -6 77 -5 76 -2 -73z"/>
<path d="M3909 4033 c35 -39 47 -59 39 -64 -8 -5 121 -141 372 -394 337 -339
593 -586 551 -532 -26 33 -1 31 37 -3 20 -19 -206 210 -503 508 -297 298 -541
542 -543 542 -2 0 19 -26 47 -57z"/>
</g>
</svg>
